# xmcd
#
# Track frame offsets:
#	150
#	17383
#	27817
#	52291
#	66394
#	89756
#	120878
#	136514
#	160755
#	183097
#	209035
#	231775
#	249931
#	266454
#	288985
#	309051
#	329787
#
# Disc length: 4772 seconds
#
# Revision: 1
# Processed by: cddbd v1.5.2PL0 Copyright (c) Steve Scherf et al.
# Submitted via: EZCDAudioConverter 6.0.0.1
#
DISCID=e612a211
DTITLE=Various Artist - Akella Presents - vol.115 - Electric Blues  CD2
DYEAR=2017
DGENRE=Blues
TTITLE0=The Josh Pilot Band - When I'm Dead
TTITLE1=Eric Clapton - Rock And Roll Records
TTITLE2=Ronnie Shellist - Bad News
TTITLE3=John Mellencamp - Someday
TTITLE4=The Homemade Jamz Blues Band - Penny Waiting on Change
TTITLE5=Twelve Bar Blues Band - Key To You Heart
TTITLE6=Eric Lindell - That's Why I'm Crying
TTITLE7=Crooked Eye Tommy - After The Burn
TTITLE8=Steven Seagal - Not For Sale
TTITLE9=Tim Fik - When the Nighttime Comes
TTITLE10=Wayne Perkins - Money No Good
TTITLE11=Ronnie Baker Brooks - Perfect Love
TTITLE12=The Eric Street Band - Baby, I Don't Know
TTITLE13=Yungjohnn - Inside Job
TTITLE14=Vargas Blues Band - King Of The Latin Blues
TTITLE15=Santana - Corazon Espinado
TTITLE16=Phil Carmen - Cool Night Water
EXTD=
EXTT0=
EXTT1=
EXTT2=
EXTT3=
EXTT4=
EXTT5=
EXTT6=
EXTT7=
EXTT8=
EXTT9=
EXTT10=
EXTT11=
EXTT12=
EXTT13=
EXTT14=
EXTT15=
EXTT16=
PLAYORDER=
